<svg width="128" height="128" viewBox="0 0 128 128" fill="none" xmlns="http://www.w3.org/2000/svg">
<rect width="128" height="128" rx="12" fill="url(#paint0_linear_1_2)"/>
<path d="M16.5014 99.5455H21.0526L25.8594 111.273H26.0639L30.8707 99.5455H35.4219V117H31.8423V105.639H31.6974L27.1804 116.915H24.7429L20.2259 105.597H20.081V117H16.5014V99.5455ZM42.1271 117.247C41.2919 117.247 40.5476 117.102 39.8942 116.812C39.2408 116.517 38.7237 116.082 38.343 115.509C37.968 114.929 37.7805 114.207 37.7805 113.344C37.7805 112.616 37.9141 112.006 38.1811 111.511C38.4482 111.017 38.8118 110.619 39.272 110.318C39.7322 110.017 40.255 109.79 40.8402 109.636C41.4311 109.483 42.0504 109.375 42.6982 109.312C43.4595 109.233 44.0732 109.159 44.5391 109.091C45.005 109.017 45.343 108.909 45.5533 108.767C45.7635 108.625 45.8686 108.415 45.8686 108.136V108.085C45.8686 107.545 45.6982 107.128 45.3572 106.832C45.022 106.537 44.5447 106.389 43.9254 106.389C43.272 106.389 42.7521 106.534 42.3658 106.824C41.9794 107.108 41.7237 107.466 41.5987 107.898L38.2408 107.625C38.4112 106.83 38.7464 106.142 39.2464 105.562C39.7464 104.977 40.3913 104.528 41.1811 104.216C41.9766 103.898 42.897 103.739 43.9425 103.739C44.6697 103.739 45.3658 103.824 46.0305 103.994C46.701 104.165 47.2947 104.429 47.8118 104.787C48.3345 105.145 48.7464 105.605 49.0476 106.168C49.3487 106.724 49.4993 107.392 49.4993 108.17V117H46.0561V115.185H45.9538C45.7436 115.594 45.4624 115.955 45.1101 116.267C44.7578 116.574 44.3345 116.815 43.8402 116.991C43.3459 117.162 42.7749 117.247 42.1271 117.247ZM43.1669 114.741C43.701 114.741 44.1726 114.636 44.5817 114.426C44.9908 114.21 45.3118 113.92 45.5447 113.557C45.7777 113.193 45.8942 112.781 45.8942 112.321V110.932C45.7805 111.006 45.6243 111.074 45.4254 111.136C45.2322 111.193 45.0135 111.247 44.7692 111.298C44.5249 111.344 44.2805 111.386 44.0362 111.426C43.7919 111.46 43.5703 111.491 43.3714 111.52C42.9453 111.582 42.5732 111.682 42.255 111.818C41.9368 111.955 41.6896 112.139 41.5135 112.372C41.3374 112.599 41.2493 112.884 41.2493 113.224C41.2493 113.719 41.4283 114.097 41.7862 114.358C42.1499 114.614 42.6101 114.741 43.1669 114.741ZM59.2791 103.909V106.636H51.3956V103.909H59.2791ZM53.1854 100.773H56.8161V112.977C56.8161 113.312 56.8672 113.574 56.9695 113.761C57.0717 113.943 57.2138 114.071 57.3956 114.145C57.5831 114.219 57.799 114.256 58.0433 114.256C58.2138 114.256 58.3842 114.241 58.5547 114.213C58.7251 114.179 58.8558 114.153 58.9467 114.136L59.5178 116.838C59.3359 116.895 59.0803 116.96 58.7507 117.034C58.4212 117.114 58.0206 117.162 57.549 117.179C56.674 117.213 55.907 117.097 55.2479 116.83C54.5945 116.562 54.0859 116.148 53.7223 115.585C53.3587 115.023 53.1797 114.312 53.1854 113.455V100.773ZM65.5561 109.432V117H61.9254V99.5455H65.4538V106.219H65.6072C65.9027 105.446 66.38 104.841 67.0391 104.403C67.6982 103.96 68.5249 103.739 69.5192 103.739C70.4283 103.739 71.2209 103.938 71.897 104.335C72.5788 104.727 73.1072 105.293 73.4822 106.031C73.8629 106.764 74.0504 107.642 74.0447 108.665V117H70.4141V109.312C70.4197 108.506 70.2152 107.878 69.8004 107.429C69.3913 106.98 68.8175 106.756 68.0788 106.756C67.5845 106.756 67.147 106.861 66.7663 107.071C66.3913 107.281 66.0959 107.588 65.88 107.991C65.6697 108.389 65.5618 108.869 65.5561 109.432ZM79.0241 117.222C78.4616 117.222 77.9787 117.023 77.5753 116.625C77.1776 116.222 76.9787 115.739 76.9787 115.176C76.9787 114.619 77.1776 114.142 77.5753 113.744C77.9787 113.347 78.4616 113.148 79.0241 113.148C79.5696 113.148 80.0469 113.347 80.456 113.744C80.8651 114.142 81.0696 114.619 81.0696 115.176C81.0696 115.551 80.973 115.895 80.7798 116.207C80.5923 116.514 80.3452 116.761 80.0384 116.949C79.7315 117.131 79.3935 117.222 79.0241 117.222ZM91.1072 99.5455H94.755V111.716C94.755 112.841 94.5021 113.818 93.9964 114.648C93.4964 115.477 92.8004 116.116 91.9084 116.565C91.0163 117.014 89.9794 117.239 88.7976 117.239C87.7464 117.239 86.7919 117.054 85.9339 116.685C85.0817 116.31 84.4055 115.741 83.9055 114.98C83.4055 114.213 83.1584 113.25 83.1641 112.091H86.8374C86.8487 112.551 86.9425 112.946 87.1186 113.276C87.3004 113.599 87.5476 113.849 87.8601 114.026C88.1783 114.196 88.5533 114.281 88.9851 114.281C89.4396 114.281 89.8232 114.185 90.1357 113.991C90.4538 113.793 90.6953 113.503 90.8601 113.122C91.0249 112.741 91.1072 112.273 91.1072 111.716V99.5455ZM107.275 104.565C107.207 103.878 106.914 103.344 106.397 102.963C105.88 102.582 105.178 102.392 104.292 102.392C103.69 102.392 103.181 102.477 102.766 102.648C102.352 102.812 102.033 103.043 101.812 103.338C101.596 103.634 101.488 103.969 101.488 104.344C101.477 104.656 101.542 104.929 101.684 105.162C101.832 105.395 102.033 105.597 102.289 105.767C102.545 105.932 102.84 106.077 103.175 106.202C103.511 106.321 103.869 106.423 104.249 106.509L105.817 106.884C106.579 107.054 107.278 107.281 107.914 107.565C108.55 107.849 109.102 108.199 109.567 108.614C110.033 109.028 110.394 109.517 110.65 110.08C110.911 110.642 111.045 111.287 111.05 112.014C111.045 113.082 110.772 114.009 110.232 114.793C109.698 115.571 108.925 116.176 107.914 116.608C106.908 117.034 105.695 117.247 104.275 117.247C102.866 117.247 101.638 117.031 100.593 116.599C99.5533 116.168 98.7408 115.528 98.1555 114.682C97.576 113.83 97.272 112.776 97.2436 111.52H100.815C100.854 112.105 101.022 112.594 101.317 112.986C101.619 113.372 102.019 113.665 102.519 113.864C103.025 114.057 103.596 114.153 104.232 114.153C104.857 114.153 105.4 114.062 105.86 113.881C106.326 113.699 106.687 113.446 106.942 113.122C107.198 112.798 107.326 112.426 107.326 112.006C107.326 111.614 107.21 111.284 106.977 111.017C106.749 110.75 106.414 110.523 105.971 110.335C105.533 110.148 104.996 109.977 104.36 109.824L102.46 109.347C100.988 108.989 99.826 108.429 98.9737 107.668C98.1214 106.906 97.6982 105.881 97.7038 104.591C97.6982 103.534 97.9794 102.611 98.5476 101.821C99.1214 101.031 99.9084 100.415 100.908 99.9716C101.908 99.5284 103.045 99.3068 104.317 99.3068C105.613 99.3068 106.744 99.5284 107.71 99.9716C108.681 100.415 109.437 101.031 109.977 101.821C110.516 102.611 110.795 103.526 110.812 104.565H107.275Z" fill="black"/>
<defs>
<linearGradient id="paint0_linear_1_2" x1="64" y1="0" x2="64" y2="128" gradientUnits="userSpaceOnUse">
<stop stop-color="#00D1FF"/>
<stop offset="1" stop-color="#FFFF00"/>
<stop offset="1" stop-color="white"/>
</linearGradient>
</defs>
</svg>
